<?xml version="1.0" encoding="UTF-8" ?>
<!DOCTYPE svg PUBLIC "-//W3C//DTD SVG 1.1//EN" "http://www.w3.org/Graphics/SVG/1.1/DTD/svg11.dtd">
<svg width="250pt" height="250pt" viewBox="0 0 250 250" version="1.1" xmlns="http://www.w3.org/2000/svg">
<g id="#bf2f38ff">
<path fill="#bf2f38" opacity="1.00" d=" M 0.00 0.00 L 250.00 0.00 L 250.00 250.00 L 0.00 250.00 L 0.00 0.00 M 7.29 209.36 C 15.44 209.28 23.59 209.29 31.74 209.35 C 31.75 205.15 31.75 200.95 31.70 196.76 C 37.43 196.77 43.15 196.76 48.87 196.77 C 54.02 200.93 59.22 205.02 64.31 209.24 C 72.33 209.40 80.35 209.25 88.36 209.34 C 86.78 206.19 82.41 207.25 79.93 205.13 C 75.54 202.84 73.84 197.50 75.59 192.96 C 74.63 192.44 73.65 191.97 72.64 191.57 C 73.55 191.55 75.37 191.51 76.27 191.48 C 81.72 183.10 91.36 178.56 100.87 176.58 C 106.39 175.48 112.27 175.69 117.54 177.75 C 119.99 178.74 122.16 181.21 121.54 184.02 C 121.03 188.28 117.03 191.03 113.20 192.16 C 104.25 194.43 94.94 193.79 85.81 193.76 C 85.37 196.79 84.48 200.54 87.07 202.90 C 91.29 207.45 97.86 207.29 103.54 208.11 C 112.65 209.07 121.83 208.83 130.96 209.27 C 144.52 208.94 158.70 210.84 171.63 205.73 C 179.15 202.78 185.84 196.86 188.31 189.00 C 190.25 181.88 185.63 175.07 180.48 170.62 C 172.31 163.82 161.29 161.90 150.95 161.73 C 132.56 161.75 114.16 161.72 95.77 161.75 C 95.84 163.89 95.88 166.04 95.91 168.19 C 86.81 162.15 75.54 162.14 65.03 161.73 C 45.79 161.71 26.55 161.80 7.31 161.69 C 7.26 177.58 7.29 193.47 7.29 209.36 M 86.89 192.24 C 94.36 191.68 102.20 192.37 109.23 189.31 C 112.41 187.97 115.28 184.55 114.25 180.92 C 111.11 177.02 105.47 178.46 101.17 178.77 C 94.75 180.86 89.54 186.11 86.89 192.24 M 198.84 209.00 C 198.60 219.71 197.68 230.39 196.18 241.00 C 201.09 241.00 205.99 241.00 210.89 241.00 C 210.89 240.37 210.89 239.11 210.89 238.48 C 217.13 242.81 225.44 242.88 232.46 240.65 C 238.30 238.91 242.94 233.17 242.47 226.94 C 242.04 222.33 238.25 218.75 233.98 217.45 C 227.38 215.47 220.23 215.52 213.54 217.05 C 213.89 214.36 214.33 211.68 214.82 209.01 C 209.50 208.99 204.17 209.00 198.84 209.00 M 147.79 222.89 C 144.73 226.39 144.30 232.03 147.25 235.74 C 150.67 240.18 156.62 241.35 161.90 241.79 C 168.85 242.20 175.92 242.27 182.77 240.88 C 183.36 238.89 183.99 236.92 184.63 234.95 C 177.40 235.35 169.62 237.60 162.75 234.31 C 161.03 233.58 160.72 231.64 160.29 230.05 C 169.47 229.91 178.66 230.08 187.85 229.96 C 188.32 226.69 188.16 222.89 185.43 220.59 C 180.40 216.27 173.33 215.99 167.03 215.97 C 160.21 216.13 152.27 217.10 147.79 222.89 M 68.54 217.02 C 73.33 224.79 77.38 232.98 81.71 241.01 C 86.47 240.99 91.22 241.00 95.98 241.00 C 98.86 236.41 101.51 231.67 104.20 226.96 C 105.78 231.70 107.73 236.29 109.52 240.95 C 114.56 241.00 119.61 241.11 124.65 240.86 C 129.85 232.72 135.62 224.97 141.09 217.00 C 136.20 217.02 131.31 216.90 126.42 217.12 C 123.89 222.01 120.94 226.67 118.38 231.55 C 116.60 226.66 114.50 221.90 112.61 217.05 C 107.56 217.20 102.38 216.50 97.41 217.36 C 94.57 221.96 92.11 226.80 89.52 231.55 C 87.67 226.60 85.23 221.90 83.25 217.00 C 78.34 217.00 73.44 216.99 68.54 217.02 Z" />
<path fill="#bf2f38" opacity="1.00" d=" M 31.69 175.53 C 40.82 175.62 49.95 175.39 59.07 175.63 C 61.83 175.57 64.00 177.35 65.65 179.35 C 65.65 179.94 65.64 181.11 65.63 181.70 C 63.57 184.41 60.23 185.36 56.95 185.39 C 48.54 185.53 40.12 185.37 31.70 185.45 C 31.75 182.14 31.75 178.83 31.69 175.53 Z" />
<path fill="#bf2f38" opacity="1.00" d=" M 132.21 175.51 C 138.81 175.75 145.42 175.40 152.02 175.70 C 156.47 176.05 161.74 177.82 163.45 182.38 C 165.01 186.97 161.38 192.04 156.81 192.89 C 148.80 194.82 140.50 193.80 132.35 194.18 C 131.56 187.99 131.93 181.72 132.21 175.51 Z" />
<path fill="#bf2f38" opacity="1.00" d=" M 160.53 225.87 C 163.00 221.11 172.31 219.97 173.84 225.92 C 169.41 226.04 164.96 226.07 160.53 225.87 Z" />
<path fill="#bf2f38" opacity="1.00" d=" M 212.45 224.05 C 216.53 222.85 221.47 222.13 225.08 224.93 C 228.07 227.18 226.94 232.23 223.86 233.88 C 220.42 235.82 215.29 235.44 212.86 232.10 C 211.84 229.55 212.42 226.71 212.45 224.05 Z" />
</g>
<g id="#ffffffff">
<path fill="#ffffff" opacity="1.00" d=" M 7.29 209.36 C 7.29 193.47 7.26 177.58 7.31 161.69 C 26.55 161.80 45.79 161.71 65.03 161.73 C 75.54 162.14 86.81 162.15 95.91 168.19 C 95.88 166.04 95.84 163.89 95.77 161.75 C 114.16 161.72 132.56 161.75 150.95 161.73 C 161.29 161.90 172.31 163.82 180.48 170.62 C 185.63 175.07 190.25 181.88 188.31 189.00 C 185.84 196.86 179.15 202.78 171.63 205.73 C 158.70 210.84 144.52 208.94 130.96 209.27 C 121.83 208.83 112.65 209.07 103.54 208.11 C 97.86 207.29 91.29 207.45 87.07 202.90 C 84.48 200.54 85.37 196.79 85.81 193.76 C 94.94 193.79 104.25 194.43 113.20 192.16 C 117.03 191.03 121.03 188.28 121.54 184.02 C 122.16 181.21 119.99 178.74 117.54 177.75 C 112.27 175.69 106.39 175.48 100.87 176.58 C 91.36 178.56 81.72 183.10 76.27 191.48 C 75.37 191.51 73.55 191.55 72.64 191.57 C 73.65 191.97 74.63 192.44 75.59 192.96 C 73.84 197.50 75.54 202.84 79.93 205.13 C 82.41 207.25 86.78 206.19 88.36 209.34 C 80.35 209.25 72.33 209.40 64.31 209.24 C 59.22 205.02 54.02 200.93 48.87 196.77 C 43.15 196.76 37.43 196.77 31.70 196.76 C 31.75 200.95 31.75 205.15 31.74 209.35 C 23.59 209.29 15.44 209.28 7.29 209.36 M 31.69 175.53 C 31.75 178.83 31.75 182.14 31.70 185.45 C 40.12 185.37 48.54 185.53 56.95 185.39 C 60.23 185.36 63.57 184.41 65.63 181.70 C 65.64 181.11 65.65 179.94 65.65 179.35 C 64.00 177.35 61.83 175.57 59.07 175.63 C 49.95 175.39 40.82 175.62 31.69 175.53 M 132.21 175.51 C 131.93 181.72 131.56 187.99 132.35 194.18 C 140.50 193.80 148.80 194.82 156.81 192.89 C 161.38 192.04 165.01 186.97 163.45 182.38 C 161.74 177.82 156.47 176.05 152.02 175.70 C 145.42 175.40 138.81 175.75 132.21 175.51 Z" />
<path fill="#ffffff" opacity="1.00" d=" M 86.89 192.24 C 89.54 186.11 94.75 180.86 101.17 178.77 C 105.47 178.46 111.11 177.02 114.25 180.92 C 115.28 184.55 112.41 187.97 109.23 189.31 C 102.20 192.37 94.36 191.68 86.89 192.24 Z" />
<path fill="#ffffff" opacity="1.00" d=" M 198.84 209.00 C 204.17 209.00 209.50 208.99 214.82 209.01 C 214.33 211.68 213.89 214.36 213.54 217.05 C 220.23 215.52 227.38 215.47 233.98 217.45 C 238.25 218.75 242.04 222.33 242.47 226.94 C 242.94 233.17 238.30 238.91 232.46 240.65 C 225.44 242.88 217.13 242.81 210.89 238.48 C 210.89 239.11 210.89 240.37 210.89 241.00 C 205.99 241.00 201.09 241.00 196.18 241.00 C 197.68 230.39 198.60 219.71 198.84 209.00 M 212.45 224.05 C 212.42 226.71 211.84 229.55 212.86 232.10 C 215.29 235.44 220.42 235.82 223.86 233.88 C 226.94 232.23 228.07 227.18 225.08 224.93 C 221.47 222.13 216.53 222.85 212.45 224.05 Z" />
<path fill="#ffffff" opacity="1.00" d=" M 147.79 222.89 C 152.27 217.10 160.21 216.13 167.03 215.97 C 173.33 215.99 180.40 216.27 185.43 220.59 C 188.16 222.89 188.32 226.69 187.85 229.96 C 178.66 230.08 169.47 229.91 160.29 230.05 C 160.72 231.64 161.03 233.58 162.75 234.31 C 169.62 237.60 177.40 235.35 184.63 234.95 C 183.99 236.92 183.36 238.89 182.77 240.88 C 175.92 242.27 168.85 242.20 161.90 241.79 C 156.62 241.35 150.67 240.18 147.25 235.74 C 144.30 232.03 144.73 226.39 147.79 222.89 M 160.53 225.87 C 164.96 226.07 169.41 226.04 173.84 225.92 C 172.31 219.97 163.00 221.11 160.53 225.87 Z" />
<path fill="#ffffff" opacity="1.00" d=" M 68.54 217.02 C 73.44 216.99 78.34 217.00 83.25 217.00 C 85.23 221.90 87.67 226.60 89.52 231.55 C 92.11 226.80 94.57 221.96 97.41 217.36 C 102.38 216.50 107.56 217.20 112.61 217.05 C 114.50 221.90 116.60 226.66 118.38 231.55 C 120.94 226.67 123.89 222.01 126.42 217.12 C 131.31 216.90 136.20 217.02 141.09 217.00 C 135.62 224.97 129.85 232.72 124.65 240.86 C 119.61 241.11 114.56 241.00 109.52 240.95 C 107.73 236.29 105.78 231.70 104.20 226.96 C 101.51 231.67 98.86 236.41 95.98 241.00 C 91.22 241.00 86.47 240.99 81.71 241.01 C 77.38 232.98 73.33 224.79 68.54 217.02 Z" />
</g>
</svg>
